<?xml version="1.0" encoding="utf-8" ?>
<svg xmlns="http://www.w3.org/2000/svg" xmlns:xlink="http://www.w3.org/1999/xlink" width="1024" height="1024">
	<path fill="#7394F7" transform="scale(2 2)" d="M81.2074 169.238C85.2271 169.427 92.2183 169.588 96.125 169.238L96.125 342.068C93.908 341.992 91.6683 341.839 89.4573 342.068C76.2102 342.223 67.3525 341.784 56.4582 332.99C40.0447 319.74 41.1224 304.488 41.1316 285.895L41.1316 223.582C41.1093 208.495 40.5562 196.74 50.8537 184.282C59.0382 174.38 68.7277 170.447 81.2074 169.238Z"/>
	<defs>
		<linearGradient id="gradient_0" gradientUnits="userSpaceOnUse" x1="181.70201" y1="449.57086" x2="333.49771" y2="97.335167">
			<stop offset="0" stop-color="#66A6F9"/>
			<stop offset="1" stop-color="#CDEEF5"/>
		</linearGradient>
	</defs>
	<path fill="url(#gradient_0)" transform="scale(2 2)" d="M96.125 169.238C97.2328 139.464 93.4473 119.358 117.097 94.3423C137.313 72.9598 158.025 72.2509 185.23 72.2507L336.005 72.2609C341.24 72.2662 346.392 72.4171 351.626 72.2574L352.046 72.4049C356.616 73.9911 361.535 74.2478 366.135 75.8523C384.69 82.3252 399.049 95.0854 407.668 112.719C417.762 133.369 414.628 147.739 415.292 169.238C432.025 168.952 444.579 167.657 457.637 180.251C467.655 189.913 470.504 199.807 470.702 213.312C470.993 233.142 470.701 253.012 470.716 272.846L470.728 292.152C470.729 306.059 470.494 317.878 460.03 328.603C454.508 334.262 446.869 339.794 438.962 341.351C431.11 342.977 423.264 342.732 415.292 342.71C415.306 349.869 415.625 357.154 415.19 364.298C412.722 404.824 383.028 439.164 341.045 439.204L187.318 439.18C176.996 439.19 166.022 439.784 155.899 437.542C122.872 430.225 98.1605 402.64 96.239 368.516C95.7441 359.726 96.3919 350.866 96.125 342.068C93.9183 342.123 91.656 342.283 89.4573 342.068C91.6683 341.839 93.908 341.992 96.125 342.068L96.125 169.238C92.2183 169.588 85.2271 169.427 81.2074 169.238C84.4581 168.766 92.3036 169.226 96.125 169.238Z"/>
	<path fill="white" transform="scale(2 2)" d="M270.469 192.603C279.652 192.098 288.807 199.98 289.4 209.209C289.829 215.879 286.011 222.761 283.581 228.759L274.682 250.546C272.296 256.373 260.897 286.736 258.025 289.981C254.604 293.846 250.419 296.076 245.249 296.348C235.919 296.797 227.763 289.818 226.565 280.521C225.979 275.969 230.082 267.697 231.607 263.445L248.414 217.885C252.714 206.35 255.806 193.956 270.469 192.603Z"/>
	<defs>
		<linearGradient id="gradient_1" gradientUnits="userSpaceOnUse" x1="195.40771" y1="381.76657" x2="317.68558" y2="354.04224">
			<stop offset="0" stop-color="#B7E5F8"/>
			<stop offset="1" stop-color="#FFFFFE"/>
		</linearGradient>
	</defs>
	<path fill="url(#gradient_1)" transform="scale(2 2)" d="M226.074 351.523L297.106 351.514C300.702 351.515 304.461 351.299 308.019 351.894C321.325 354.117 324.72 371.126 315.842 380.002C309.819 386.024 296.905 384.105 288.396 384.109L216.878 384.114C210.173 384.111 202.612 384.853 197.38 379.808C191.112 373.766 190.74 362.513 196.945 356.262C201.886 351.286 208.42 351.539 214.946 351.515L226.074 351.523Z"/>
	<defs>
		<linearGradient id="gradient_2" gradientUnits="userSpaceOnUse" x1="203.69374" y1="273.26224" x2="150.20963" y2="211.11388">
			<stop offset="0" stop-color="#D5ECF8"/>
			<stop offset="1" stop-color="white"/>
		</linearGradient>
	</defs>
	<path fill="url(#gradient_2)" transform="scale(2 2)" d="M180.515 194.296C195.144 190.111 203.859 209.162 195.612 220.723C191.964 225.837 178.045 235.517 172.512 240.007C184.368 248.842 208.066 258.146 197.734 277.339C192.679 286.731 183.907 288.74 174.848 283.54C166.807 278.345 159.045 272.631 151.187 267.163C142.273 260.959 127.364 253.996 125.739 242.219C123.696 227.409 141.185 220.246 151.599 212.748L165.564 202.822C170.086 199.567 174.759 194.978 180.515 194.296Z"/>
	<path fill="white" transform="scale(2 2)" d="M326.088 194.296C336.285 193.536 343.399 201.102 351.173 206.559L366.681 217.368C371.413 220.671 377.658 224.169 381.174 228.767C386.004 235.083 385.403 246.033 380.408 252.135C373.904 260.079 347.159 276.237 337.633 283.54C316.792 294.278 304.135 271.331 315.083 258.209C319.018 253.492 333.391 244.562 339.235 240.822L327.37 232.365C323.285 229.493 318.393 226.68 315.15 222.848C305.813 211.818 312.831 196.952 326.088 194.296Z"/>
	<path fill="#B6E5F8" transform="scale(2 2)" d="M438.962 341.351C439.767 340.276 451.709 336.507 454.366 332.725C456.599 329.549 451.837 325.208 450.588 322.879C447.949 317.96 444.075 309.57 441.978 304.465C440.614 301.144 440.706 297.423 439.515 294.157C438.963 292.644 437.413 291.521 436.729 290.063C436.123 288.769 436.21 286.925 435.745 285.518C434.273 281.064 430.607 271.177 428.821 266.991C427.453 263.785 425.299 261.118 423.749 258.058C423.064 256.706 423.253 254.997 422.555 253.641C421.614 251.815 419.894 250.348 418.891 248.495C417.143 245.264 416.65 241.422 415.162 238.054C414.042 235.517 412.145 233.264 411.133 230.723C409.316 226.158 406.669 220.152 405.153 215.75C403.881 212.059 403.622 206.872 401.432 203.657C400.606 202.446 398.847 202.037 397.945 200.904C395.505 197.838 394.359 193.76 391.848 190.656C390.506 188.998 379.248 179.788 376.146 177.243C371.711 173.604 367.013 170.858 362.955 165.964C361.034 163.647 362.587 164.424 358.892 164.043C356.603 161.47 355.152 158.271 352.858 155.757C348.845 151.36 343.792 149.185 339.294 143.393C338.733 142.67 338.761 141.625 338.221 140.99C337.651 140.32 336.21 141.474 335.415 141.396C332.38 137.609 328.221 135.862 325.444 132.524C323.085 129.689 322.292 125.574 319.802 123.006L319.314 123.199L318.572 122.52C314.678 121.694 304.502 113.953 300.217 111.444C293.941 107.771 299.951 106.032 292.214 107.939L292.324 107.453L291.772 107.32C287.655 97.4672 295.698 96.9283 292.175 88.3668C291.371 86.4137 290.226 85.0735 290.614 83.2569C289.455 82.31 290.102 82.2901 290.406 81.0058C288.585 80.7642 285.227 81.2075 283.662 80.4944C282.226 79.8404 283.475 77.1478 282.95 75.8809C282.441 74.6511 278.204 74.0334 276.349 72.8927C276.667 72.6646 297.255 72.2368 300.549 72.2455L332.629 72.2626C337.079 72.2772 348.163 74.5009 351.626 72.2574L352.046 72.4049C356.616 73.9911 361.535 74.2478 366.135 75.8523C384.69 82.3252 399.049 95.0854 407.668 112.719C417.762 133.369 414.628 147.739 415.292 169.238C432.025 168.952 444.579 167.657 457.637 180.251C467.655 189.913 470.504 199.807 470.702 213.312C470.993 233.142 470.701 253.012 470.716 272.846L470.728 292.152C470.729 306.059 470.494 317.878 460.03 328.603C454.508 334.262 446.869 339.794 438.962 341.351Z"/>
</svg>
