<?xml version="1.0" encoding="UTF-8"?>
<svg xmlns="http://www.w3.org/2000/svg" xmlns:xlink="http://www.w3.org/1999/xlink" width="16px" height="16px" viewBox="0 0 16 16" version="1.1">
<defs>
<linearGradient id="linear0" gradientUnits="userSpaceOnUse" x1="181.702011" y1="449.570862" x2="333.497711" y2="97.335167" gradientTransform="matrix(0.03125,0,0,0.03125,0,0)">
<stop offset="0" style="stop-color:rgb(40%,65.098039%,97.647059%);stop-opacity:1;"/>
<stop offset="1" style="stop-color:rgb(80.392157%,93.333333%,96.078431%);stop-opacity:1;"/>
</linearGradient>
<linearGradient id="linear1" gradientUnits="userSpaceOnUse" x1="195.407715" y1="381.766571" x2="317.685577" y2="354.042236" gradientTransform="matrix(0.03125,0,0,0.03125,0,0)">
<stop offset="0" style="stop-color:rgb(71.764706%,89.803922%,97.254902%);stop-opacity:1;"/>
<stop offset="1" style="stop-color:rgb(100%,100%,99.607843%);stop-opacity:1;"/>
</linearGradient>
<linearGradient id="linear2" gradientUnits="userSpaceOnUse" x1="203.693741" y1="273.262238" x2="150.209625" y2="211.113876" gradientTransform="matrix(0.03125,0,0,0.03125,0,0)">
<stop offset="0" style="stop-color:rgb(83.529412%,92.54902%,97.254902%);stop-opacity:1;"/>
<stop offset="1" style="stop-color:rgb(100%,100%,100%);stop-opacity:1;"/>
</linearGradient>
</defs>
<g id="surface1">
<path style=" stroke:none;fill-rule:nonzero;fill:rgb(45.09804%,58.039218%,96.862745%);fill-opacity:1;" d="M 2.539062 5.289062 C 2.664062 5.292969 2.882812 5.300781 3.003906 5.289062 L 3.003906 10.691406 C 2.933594 10.6875 2.863281 10.683594 2.796875 10.691406 C 2.382812 10.695312 2.105469 10.679688 1.765625 10.40625 C 1.25 9.992188 1.285156 9.515625 1.285156 8.933594 L 1.285156 6.988281 C 1.285156 6.515625 1.265625 6.148438 1.589844 5.757812 C 1.84375 5.449219 2.148438 5.328125 2.539062 5.289062 Z M 2.539062 5.289062 "/>
<path style=" stroke:none;fill-rule:nonzero;fill:url(#linear0);" d="M 3.003906 5.289062 C 3.039062 4.359375 2.921875 3.730469 3.660156 2.949219 C 4.292969 2.28125 4.9375 2.257812 5.789062 2.257812 L 10.5 2.257812 C 10.664062 2.257812 10.824219 2.261719 10.988281 2.257812 L 11 2.261719 C 11.144531 2.3125 11.296875 2.320312 11.441406 2.371094 C 12.023438 2.574219 12.46875 2.972656 12.738281 3.523438 C 13.054688 4.167969 12.957031 4.617188 12.976562 5.289062 C 13.5 5.28125 13.894531 5.238281 14.300781 5.632812 C 14.613281 5.933594 14.703125 6.242188 14.710938 6.664062 C 14.71875 7.285156 14.710938 7.90625 14.710938 8.527344 L 14.710938 9.128906 C 14.710938 9.5625 14.703125 9.933594 14.375 10.269531 C 14.203125 10.445312 13.964844 10.617188 13.71875 10.667969 C 13.472656 10.71875 13.226562 10.710938 12.976562 10.710938 C 12.976562 10.933594 12.988281 11.160156 12.976562 11.382812 C 12.898438 12.652344 11.96875 13.722656 10.65625 13.726562 L 5.855469 13.722656 C 5.53125 13.726562 5.1875 13.742188 4.871094 13.671875 C 3.839844 13.445312 3.066406 12.582031 3.007812 11.515625 C 2.992188 11.242188 3.011719 10.964844 3.003906 10.691406 C 2.933594 10.691406 2.863281 10.695312 2.796875 10.691406 C 2.863281 10.683594 2.933594 10.6875 3.003906 10.691406 L 3.003906 5.289062 C 2.882812 5.300781 2.664062 5.292969 2.539062 5.289062 C 2.640625 5.273438 2.882812 5.289062 3.003906 5.289062 Z M 3.003906 5.289062 "/>
<path style=" stroke:none;fill-rule:nonzero;fill:rgb(100%,100%,100%);fill-opacity:1;" d="M 8.453125 6.019531 C 8.738281 6.003906 9.023438 6.25 9.042969 6.539062 C 9.058594 6.746094 8.9375 6.960938 8.863281 7.148438 L 8.582031 7.828125 C 8.507812 8.011719 8.152344 8.960938 8.0625 9.0625 C 7.957031 9.183594 7.824219 9.253906 7.664062 9.261719 C 7.371094 9.273438 7.117188 9.058594 7.082031 8.765625 C 7.0625 8.625 7.191406 8.367188 7.238281 8.234375 L 7.761719 6.808594 C 7.898438 6.449219 7.992188 6.0625 8.453125 6.019531 Z M 8.453125 6.019531 "/>
<path style=" stroke:none;fill-rule:nonzero;fill:url(#linear1);" d="M 7.066406 10.984375 L 9.285156 10.984375 C 9.398438 10.984375 9.515625 10.976562 9.625 10.996094 C 10.042969 11.066406 10.148438 11.597656 9.871094 11.875 C 9.683594 12.0625 9.277344 12.003906 9.011719 12.003906 L 6.777344 12.003906 C 6.566406 12.003906 6.332031 12.027344 6.167969 11.867188 C 5.972656 11.679688 5.960938 11.328125 6.15625 11.132812 C 6.308594 10.976562 6.511719 10.984375 6.71875 10.984375 Z M 7.066406 10.984375 "/>
<path style=" stroke:none;fill-rule:nonzero;fill:url(#linear2);" d="M 5.640625 6.070312 C 6.097656 5.941406 6.371094 6.535156 6.113281 6.898438 C 6 7.058594 5.5625 7.359375 5.390625 7.5 C 5.761719 7.777344 6.503906 8.066406 6.179688 8.667969 C 6.019531 8.960938 5.746094 9.023438 5.464844 8.859375 C 5.210938 8.699219 4.96875 8.519531 4.722656 8.347656 C 4.445312 8.15625 3.980469 7.9375 3.929688 7.570312 C 3.867188 7.105469 4.410156 6.882812 4.738281 6.648438 L 5.175781 6.339844 C 5.316406 6.238281 5.460938 6.09375 5.640625 6.070312 Z M 5.640625 6.070312 "/>
<path style=" stroke:none;fill-rule:nonzero;fill:rgb(100%,100%,100%);fill-opacity:1;" d="M 10.191406 6.070312 C 10.507812 6.046875 10.730469 6.285156 10.972656 6.453125 L 11.457031 6.792969 C 11.605469 6.894531 11.800781 7.003906 11.910156 7.148438 C 12.0625 7.347656 12.042969 7.6875 11.886719 7.878906 C 11.683594 8.128906 10.847656 8.632812 10.550781 8.859375 C 9.898438 9.195312 9.503906 8.480469 9.847656 8.070312 C 9.96875 7.921875 10.417969 7.640625 10.601562 7.527344 L 10.230469 7.261719 C 10.101562 7.171875 9.949219 7.082031 9.847656 6.964844 C 9.558594 6.621094 9.777344 6.15625 10.191406 6.070312 Z M 10.191406 6.070312 "/>
<path style=" stroke:none;fill-rule:nonzero;fill:rgb(71.372551%,89.803922%,97.254902%);fill-opacity:1;" d="M 13.71875 10.667969 C 13.742188 10.632812 14.117188 10.515625 14.199219 10.398438 C 14.269531 10.296875 14.121094 10.164062 14.082031 10.089844 C 14 9.9375 13.878906 9.675781 13.8125 9.515625 C 13.769531 9.410156 13.773438 9.292969 13.734375 9.191406 C 13.71875 9.144531 13.667969 9.109375 13.648438 9.066406 C 13.628906 9.023438 13.632812 8.964844 13.617188 8.921875 C 13.570312 8.785156 13.457031 8.472656 13.402344 8.34375 C 13.359375 8.242188 13.289062 8.160156 13.242188 8.0625 C 13.222656 8.023438 13.226562 7.96875 13.203125 7.925781 C 13.175781 7.871094 13.121094 7.824219 13.089844 7.765625 C 13.035156 7.664062 13.019531 7.542969 12.972656 7.4375 C 12.9375 7.359375 12.878906 7.289062 12.847656 7.210938 C 12.792969 7.066406 12.707031 6.878906 12.660156 6.742188 C 12.621094 6.625 12.613281 6.464844 12.542969 6.363281 C 12.519531 6.328125 12.464844 6.3125 12.4375 6.277344 C 12.359375 6.183594 12.324219 6.054688 12.246094 5.957031 C 12.203125 5.90625 11.851562 5.617188 11.753906 5.539062 C 11.617188 5.425781 11.46875 5.339844 11.34375 5.1875 C 11.28125 5.113281 11.332031 5.136719 11.214844 5.125 C 11.144531 5.046875 11.097656 4.945312 11.027344 4.867188 C 10.902344 4.730469 10.742188 4.660156 10.601562 4.480469 C 10.585938 4.457031 10.585938 4.425781 10.570312 4.40625 C 10.550781 4.386719 10.507812 4.421875 10.480469 4.417969 C 10.386719 4.300781 10.257812 4.246094 10.171875 4.140625 C 10.097656 4.054688 10.070312 3.925781 9.992188 3.84375 L 9.980469 3.851562 L 9.957031 3.828125 C 9.832031 3.804688 9.515625 3.5625 9.382812 3.484375 C 9.1875 3.367188 9.375 3.3125 9.132812 3.375 L 9.136719 3.359375 L 9.117188 3.355469 C 8.988281 3.046875 9.242188 3.027344 9.128906 2.761719 C 9.105469 2.699219 9.070312 2.660156 9.082031 2.601562 C 9.046875 2.570312 9.066406 2.570312 9.074219 2.53125 C 9.019531 2.523438 8.914062 2.539062 8.863281 2.515625 C 8.820312 2.496094 8.859375 2.410156 8.84375 2.371094 C 8.828125 2.332031 8.695312 2.3125 8.636719 2.277344 C 8.644531 2.269531 9.289062 2.257812 9.390625 2.257812 L 10.394531 2.257812 C 10.535156 2.257812 10.878906 2.328125 10.988281 2.257812 L 11 2.261719 C 11.144531 2.3125 11.296875 2.320312 11.441406 2.371094 C 12.023438 2.574219 12.46875 2.972656 12.738281 3.523438 C 13.054688 4.167969 12.957031 4.617188 12.976562 5.289062 C 13.5 5.28125 13.894531 5.238281 14.300781 5.632812 C 14.613281 5.933594 14.703125 6.242188 14.710938 6.664062 C 14.71875 7.285156 14.710938 7.90625 14.710938 8.527344 L 14.710938 9.128906 C 14.710938 9.5625 14.703125 9.933594 14.375 10.269531 C 14.203125 10.445312 13.964844 10.617188 13.71875 10.667969 Z M 13.71875 10.667969 "/>
</g>
</svg>
